<svg enable-background="new 0 0 31.75 31.75" version="1.1" viewBox="0 0 31.75 31.75" xml:space="preserve" xmlns="http://www.w3.org/2000/svg"><style type="text/css">.st0{fill:#F99F3D;}.st1{fill:#0891C1;}.st2{clip-path:url(#SVGID_2_);fill:url(#SVGID_3_);}.st3{clip-path:url(#SVGID_5_);fill:url(#SVGID_6_);}.st4{fill:url(#SVGID_7_);}.st5{fill:url(#SVGID_8_);}.st6{fill:#FCFCFC;}.st7{fill:url(#SVGID_9_);}.st8{fill:url(#SVGID_10_);}.st9{fill:url(#SVGID_11_);}.st10{fill:url(#SVGID_12_);}.st11{fill:url(#SVGID_13_);}.st12{fill:url(#SVGID_14_);}.st13{fill:#020202;}.st14{fill:#0891C1;stroke:#FFFFFF;stroke-miterlimit:10;}.st15{fill:#FFFFFF;stroke:#FFFFFF;}.st16{fill:#F99F3D;stroke:#FFFFFF;stroke-miterlimit:10;}</style><path class="st0" d="m10.58 9.78 16.45 7.9 0.06 0.03c1.51 0.86 2.6 1.75 3.25 2.66 0.66 0.92 0.99 2.26 0.99 4.04 0 3.33-1.59 5.64-4.76 6.91-0.62 0.22-1.28 0.33-1.98 0.33h-8.5c-2.86 0-4.98-1.53-6.38-4.6-0.02-0.05-0.03-0.09-0.05-0.13-0.21-0.72-0.31-1.39-0.31-2v-1.39c0-0.47 0.38-0.85 0.85-0.85h2.79c0.47 0 0.85 0.38 0.85 0.85v0.97c0 1.25 0.55 2.1 1.66 2.54 0.08 0.03 0.17 0.05 0.25 0.06 0.7 0.05 3.5 0.07 8.42 0.07 1.12 0 1.91-0.45 2.37-1.34 0.02-0.04 0.04-0.09 0.06-0.14 0.1-0.33 0.15-0.55 0.15-0.68v-1.33c0-0.14-0.03-0.28-0.1-0.4-0.42-0.73-1.88-1.68-4.39-2.84l-12.43-6.08c-0.29-0.14-0.48-0.44-0.48-0.77v-3.04c0-0.63 0.66-1.04 1.23-0.77z"/><path class="st1" d="m7.22 0.1h8c3.13 0 5.33 1.64 6.6 4.92 0.01 0.02 0.01 0.04 0.02 0.06 0.21 0.76 0.32 1.61 0.32 2.55v1.16c0 0.04-0.03 0.09-0.08 0.13-0.08 0.07-0.2 0.11-0.31 0.11h-3.91c-0.04 0-0.09-0.03-0.13-0.08-0.07-0.08-0.11-0.2-0.11-0.31v-1.97c0-0.03 0-0.07-0.01-0.1-0.27-1.33-1.07-2-2.39-2h-8.15c-1.27 0-2.02 0.81-2.24 2.43 0 0.02-0.01 0.05-0.01 0.07v17.39c0 1.31 0.67 2.1 2.02 2.37 0.03 0.01 0.07 0.01 0.1 0.01h8.63c0.04 0 0.09-0.01 0.13-0.02 1.28-0.34 1.92-0.99 1.92-1.95v-1.99c0-0.27 0.22-0.49 0.49-0.49h3.55c0.27 0 0.49 0.22 0.49 0.49v0.99c0 3.74-1.76 6.16-5.28 7.26-0.65 0.17-1.4 0.26-2.22 0.26h-7.01c-3.47 0-5.8-1.7-7.01-5.1-0.01-0.02-0.01-0.04-0.02-0.06-0.16-0.63-0.24-1.23-0.24-1.77v-17.51c0-2.99 1.59-5.15 4.77-6.51 0.02-0.01 0.04-0.02 0.07-0.02 0.72-0.22 1.4-0.32 2.01-0.32z"/><path class="st0" d="m17.44 0.1h5.86c3.42 0 5.72 1.08 6.91 3.24 0.78 1.03 1.17 2.45 1.17 4.27v0.84 0.11c0 0.35-0.28 0.63-0.63 0.63h-3.25-0.05c-0.36 0-0.65-0.29-0.65-0.65v-0.12-1.56c-0.01-0.13-0.17-1.37-1.19-1.94-0.29-0.16-0.61-0.24-0.99-0.24h-8.35c-1.19 0-1.97 0.61-2.33 1.83-0.04 0.29-0.07 0.57-0.07 0.84v1.92c0 0.43-0.44 0.71-0.83 0.53l-2.98-1.38c-0.43-0.2-0.7-0.63-0.7-1.1v-0.4c0-2.88 1.53-5.01 4.58-6.41 0.77-0.27 1.94-0.41 3.5-0.41z"/></svg>
